<svg xmlns="http://www.w3.org/2000/svg" viewBox="0 0 1027.47 645.81" ><defs><style>.cls-1{fill:#fff;}</style></defs><g id="Layer_2" data-name="Layer 2"><g id="Layer_1-2" data-name="Layer 1"><path class="cls-1" d="M440.72,413.53c4.26,25.64,12,43.85,15,50.41-33.06-13.06-43-66.06-43.15-66.63-9.85-50.69,18.23-115.71,22.07-124.25,19.2,5.76,21.87,12.13,22.21,13.34A224.92,224.92,0,0,0,440.72,413.53Z"/><path class="cls-1" d="M614.85,397.33c-.1.55-10.08,53.55-43.14,66.61,3.07-6.56,10.77-24.77,15-50.41A225,225,0,0,0,570.59,286.4c.36-1.27,3.08-7.6,22.2-13.34C596.63,281.61,624.72,346.61,614.85,397.33Z"/><path class="cls-1" d="M61.1,608.38V623H0V544.12H59.63v14.66H18.15v17.13H54.79v14.21H18.15v18.26Z"/><path class="cls-1" d="M74.4,539.39H92V623H74.4Z"/><path class="cls-1" d="M167.41,597.67H121.53c1.69,7.55,8.11,12.18,17.36,12.18,6.42,0,11.05-1.92,15.22-5.87l9.35,10.15c-5.63,6.43-14.09,9.81-25,9.81-21,0-34.61-13.19-34.61-31.23s13.86-31.23,32.35-31.23c17.81,0,31.57,11.95,31.57,31.46C167.75,594.29,167.52,596.21,167.41,597.67ZM121.3,587.41h29.88c-1.24-7.66-7-12.62-14.88-12.62S122.54,579.63,121.3,587.41Z"/><path class="cls-1" d="M245.54,592.71c0,19-13.19,31.23-30.22,31.23-7.55,0-13.75-2.37-18.26-7.33v28.3H179.47V562.39h16.8v7c4.4-5.3,10.94-7.9,19-7.9C232.35,561.48,245.54,573.66,245.54,592.71Zm-17.82,0c0-10.48-6.65-16.8-15.44-16.8s-15.45,6.32-15.45,16.8,6.66,16.8,15.45,16.8S227.72,603.2,227.72,592.71Z"/><path class="cls-1" d="M319.26,588.31V623H301.68V591c0-9.81-4.51-14.32-12.29-14.32-8.45,0-14.54,5.19-14.54,16.35v30H257.26V539.39h17.59V568.7c4.73-4.74,11.5-7.22,19.27-7.22C308.44,561.48,319.26,569.83,319.26,588.31Z"/><path class="cls-1" d="M388.82,588.43V623H372.36v-7.56c-3.27,5.53-9.58,8.46-18.48,8.46-14.21,0-22.66-7.89-22.66-18.38,0-10.71,7.55-18.15,26-18.15h14c0-7.55-4.51-11.95-14-11.95-6.43,0-13.08,2.15-17.48,5.64l-6.31-12.29c6.65-4.73,16.46-7.33,26.15-7.33C378.11,561.48,388.82,570.05,388.82,588.43Zm-17.58,15.44v-6.2H359.17c-8.23,0-10.82,3-10.82,7.1,0,4.4,3.72,7.33,9.92,7.33C364.13,612.1,369.21,609.4,371.24,603.87Z"/><path class="cls-1" d="M466.72,588.31V623H449.14V591c0-9.81-4.51-14.32-12.29-14.32-8.46,0-14.55,5.19-14.55,16.35v30H404.72V562.39h16.8v7.1c4.73-5.19,11.83-8,20.06-8C455.9,561.48,466.72,569.83,466.72,588.31Z"/><path class="cls-1" d="M521.74,620.11c-3.61,2.59-8.91,3.83-14.32,3.83-14.32,0-22.66-7.33-22.66-21.76V577.27H475.4V563.74h9.36V549h17.59v14.77h15.1v13.53h-15.1V602c0,5.18,2.82,8,7.55,8a11.81,11.81,0,0,0,7.1-2.26Z"/><path class="cls-1" d="M564.8,544.12h35.85c25.82,0,43.51,15.56,43.51,39.46S626.47,623,600.65,623H564.8Zm35,63.92c15.67,0,25.93-9.35,25.93-24.46s-10.26-24.46-25.93-24.46H583.06V608Z"/><path class="cls-1" d="M715.75,597.67H669.87c1.69,7.55,8.12,12.18,17.36,12.18,6.43,0,11-1.92,15.22-5.87l9.36,10.15c-5.64,6.43-14.09,9.81-25,9.81-21,0-34.61-13.19-34.61-31.23s13.87-31.23,32.36-31.23c17.81,0,31.56,11.95,31.56,31.46C716.09,594.29,715.86,596.21,715.75,597.67Zm-46.1-10.26h29.87c-1.24-7.66-7-12.62-14.88-12.62S670.89,579.63,669.65,587.41Z"/><path class="cls-1" d="M722,617.4l5.86-12.63c5.41,3.5,13.64,5.87,21.08,5.87,8.12,0,11.16-2.15,11.16-5.53,0-9.92-36.64.23-36.64-24,0-11.5,10.37-19.62,28.07-19.62,8.34,0,17.59,1.92,23.34,5.3L769,579.3a34.71,34.71,0,0,0-17.47-4.51c-7.89,0-11.27,2.48-11.27,5.63,0,10.37,36.64.34,36.64,24.24,0,11.27-10.49,19.28-28.64,19.28C738,623.94,727.59,621.12,722,617.4Z"/><path class="cls-1" d="M785.54,544.12c0-5.52,4.39-9.8,10.93-9.8s10.94,4,10.94,9.47c0,5.86-4.4,10.14-10.94,10.14S785.54,549.65,785.54,544.12Zm2.14,18.27h17.59V623H787.68Z"/><path class="cls-1" d="M884.18,562.39v50.5c0,22.55-12.18,32.92-34,32.92-11.49,0-22.66-2.82-29.76-8.34l7-12.63c5.19,4.17,13.64,6.88,21.42,6.88,12.4,0,17.81-5.64,17.81-16.58v-2.59c-4.62,5.08-11.27,7.56-19.16,7.56-16.8,0-30.33-11.62-30.33-29.32s13.53-29.31,30.33-29.31c8.45,0,15.44,2.82,20.06,8.69v-7.78Zm-17.36,28.4c0-8.9-6.65-14.88-15.9-14.88s-16,6-16,14.88,6.77,14.89,16,14.89S866.82,599.7,866.82,590.79Z"/><path class="cls-1" d="M962.53,588.31V623H944.94V591c0-9.81-4.51-14.32-12.28-14.32-8.46,0-14.55,5.19-14.55,16.35v30H900.53V562.39h16.79v7.1c4.74-5.19,11.84-8,20.07-8C951.71,561.48,962.53,569.83,962.53,588.31Z"/><path class="cls-1" d="M972.57,617.4l5.86-12.63c5.41,3.5,13.64,5.87,21.08,5.87,8.12,0,11.16-2.15,11.16-5.53,0-9.92-36.64.23-36.64-24,0-11.5,10.37-19.62,28.07-19.62,8.34,0,17.59,1.92,23.34,5.3l-5.87,12.52a34.71,34.71,0,0,0-17.47-4.51c-7.89,0-11.27,2.48-11.27,5.63,0,10.37,36.64.34,36.64,24.24,0,11.27-10.49,19.28-28.64,19.28C988.57,623.94,978.2,621.12,972.57,617.4Z"/><path class="cls-1" d="M534.56,426.24a.5.5,0,0,1,0,.12A1.13,1.13,0,0,1,534.56,426.24Z"/><path class="cls-1" d="M718.55,3.3c-72.11-10.15-115.84,6-125.87,10.3C604.93,20,612.43,27.15,615,34.92c2.12,6.45-.09,10.85-.19,11l-1,1.94L612.7,46c-22.9-39.65-98.13-35-98.89-35l-.08-1.24L513.65,11c-.76-.06-76-4.65-98.89,35l-1.09,1.9-1-1.94c-.1-.19-2.31-4.59-.19-11C415,27.15,422.53,20,434.78,13.6,424.73,9.29,381-6.84,308.91,3.3L212.3,70.35l34.48,94.32c1.33,2.05,23.44,35,79.76,58.76l.4.17L340,248.66c2.5,2.16,33.73,28.41,82.49,36.51L425.31,271l-8.78-6.15,13.81-30.51C427,231.29,413.9,217,418.73,183c-2.53-1.45-10.54-6.76-16-18.33-5.9-12.43-9.81-34.75,5-70.56a43,43,0,0,0-.91-22.3c-5-16.12-19.27-28.71-41.32-36.43-2.63-.46-63.37-10.52-119.28,27.94l-8.77,6,7.21-7.83c1.76-1.92,44-46.77,121.57-37.68l.21,0c.53.16,53.14,16.5,49.93,53.5,0,.59-.2,16.79-5.26,28.51C409,110.7,391.72,153.59,425.23,173l.7.41-.11.79c-.05.41-5.22,40.12,9.06,52.62,2.73-4.51,12.47-23.84,6-61l-.68-3.86,2.73,2.82c.62.65,15.08,16.24,4.83,54.35l0,.12c-.1.24-9.1,23.44-16.4,37.61,5.34,1.2,22.5,5.93,31.74,18.66,0,0,0,.14.09.39-.05,13.15.57,26.12,1.44,37.74h0l5.73,76,.06.77c.09,1.26.2,2.52.32,3.78,3.32,35.56,14.31,67.38,43.05,67.38,27.55,0,38.79-29.25,42.59-63,.4-3.52.71-7.09.95-10.68h0l5.18-70,0-.3c1.06-12.9,1.84-27.76,1.74-42.79l.19-.92v1.63c9.24-12.73,26.4-17.46,31.74-18.66-7.3-14.17-16.3-37.37-16.4-37.61l0-.12c-10.25-38.11,4.21-53.7,4.83-54.35l2.72-2.82-.67,3.86c-6.5,37.25,3.25,56.5,6,61,14.3-12.5,9.12-52.21,9.07-52.62l-.11-.79.7-.41c33.51-19.38,16.22-62.27,14.14-67.09-5.06-11.72-5.26-27.92-5.27-28.6C607.9,40.37,660.51,24,661,23.87l.21,0c77.58-9.09,119.81,35.76,121.57,37.68l7.2,7.82-8.76-6c-56-38.48-116.65-28.4-119.28-27.94-22.05,7.72-36.34,20.31-41.32,36.43a43,43,0,0,0-.91,22.3c14.82,35.81,10.91,58.13,5,70.56-5.49,11.57-13.5,16.88-16,18.33,4.83,34-8.24,48.3-11.61,51.35l13.81,30.51L602.15,271l2.78,14.17c48.76-8.1,80-34.35,82.49-36.51l13.1-25.06.4-.17c56.39-23.8,78.43-56.71,79.76-58.76l34.48-94.32ZM452.34,146.15h-.17c-2.58,0-33.08-.66-34.52-30.45l-.06-1.11,1.1-.14c.57-.07,13.95-1.65,24.09,6.69,6.4,5.26,10,13.24,10.72,23.73l.09,1.25Zm38.87,134.66a83.57,83.57,0,0,1,11.26-1.51c1.88-.18,3.76-.22,5.64-.33s3.75-.07,5.63-.1,3.75.05,5.63.11,3.76.14,5.63.32a85.35,85.35,0,0,1,11.27,1.51V281l-22.53.12L491.21,281Zm0,30.8a82,82,0,0,1,11.26-1.52c1.88-.18,3.76-.22,5.64-.32s3.75-.07,5.63-.11,3.75,0,5.63.11,3.76.15,5.63.33a82.14,82.14,0,0,1,11.27,1.51v.22l-22.53.12-22.53-.12Zm39.48,116a44.36,44.36,0,0,1-8.48,1.63c-1.41.2-2.82.24-4.23.35s-2.83.08-4.24.11-2.83,0-4.24-.11-2.83-.16-4.24-.35a46,46,0,0,1-8.47-1.63v-.25c2.82-.05,5.65-.08,8.47-.08l8.48,0,8.47,0q4.24,0,8.48.08Zm5.81-28.7a79.6,79.6,0,0,1-11.38,1.64c-1.9.19-3.79.23-5.69.35s-3.79.07-5.69.11-3.8-.05-5.69-.12-3.8-.16-5.69-.35A79.71,79.71,0,0,1,491,398.9v-.25l22.77-.12,22.76.12Zm1.58-30.15a89.27,89.27,0,0,1-12.17,1.63c-2,.2-4.06.24-6.09.35s-4.05.08-6.08.11-4.06,0-6.09-.11-4-.16-6.08-.35a90.65,90.65,0,0,1-12.17-1.63v-.25l24.34-.12,24.34.12Zm0-27.43-24.34.12-24.34-.12v-.25a90.67,90.67,0,0,1,12.17-1.64c2-.19,4.06-.23,6.08-.35s4.06-.07,6.09-.11,4,0,6.08.12,4.06.16,6.09.35a90.86,90.86,0,0,1,12.17,1.63ZM609.81,115.7c-1.44,29.79-31.94,30.45-34.52,30.45h-.17l-1.25,0,.09-1.25c.72-10.49,4.32-18.47,10.72-23.73,10.14-8.34,23.52-6.76,24.08-6.69l1.11.14Z"/></g></g></svg>