<?xml version="1.0" encoding="utf-8"?>
<!-- Generator: Adobe Illustrator 24.1.2, SVG Export Plug-In . SVG Version: 6.00 Build 0)  -->
<svg version="1.1" id="Ebene_1" xmlns="http://www.w3.org/2000/svg" xmlns:xlink="http://www.w3.org/1999/xlink" x="0px" y="0px"
	 viewBox="0 0 24 24" style="enable-background:new 0 0 24 24;" xml:space="preserve">
<style type="text/css">
	.st0{fill:#FFFFFF;stroke:#FCFCFC;stroke-width:0.9186;}
</style>
<path class="st0" d="M20.5,22.3c-7,3-17.9-16.7-11.1-20l2-0.9l3.3,6l-2,0.9c-2.1,1,2.3,8.9,4.4,8c0.1,0,2-0.9,2-0.9l3.4,6
	C22.5,21.4,20.6,22.3,20.5,22.3z M11.5,20.3c-1.4,0.9-3.3,1-3.9,0.1c-0.4-0.7-0.3-1.5-0.1-2.5c0.2-1,0.4-2.2-0.3-3.3
	c-1.2-1.8-3.7-1.8-5.6-0.6l0.9,1.3c0.8-0.5,1.7-0.7,2.4-0.5c1.6,0.3,1.1,2.2,1,2.9c-0.2,1.1-0.4,2.3,0.3,3.5
	c1.2,1.9,4.4,1.8,6.5,0.3C12.2,21.1,11.8,20.7,11.5,20.3z"/>
</svg>
